# xmcd
#
# Track frame offsets:
#	150
#	17117
#	35692
#	51080
#	67030
#	81705
#	100467
#	118195
#	130475
#	144022
#	164290
#	183905
#	202067
#
# Disc length: 2884 seconds
#
# Revision: 1
# Processed by: cddbd v1.5.1PL2 Copyright (c) Steve Scherf et al.
# Submitted via: audiograbber 1.83.01
#
DISCID=c30b420d
DTITLE=É O Tchan - Gera Samba 
DYEAR=1995
DGENRE=Samba
TTITLE0=Beco o Siri
TTITLE1=O Bicho Solto
TTITLE2=Paquerei
TTITLE3=Da Clara E Da Gema
TTITLE4=Machucado Da Morena
TTITLE5=Razão Do Meu Viver
TTITLE6=É O Tchan
TTITLE7=Tá Com Raiva De Mim
TTITLE8=Cadé Se Me Dão
TTITLE9=Então Mãe
TTITLE10=Caia Pra Dentro
TTITLE11=Gereré
TTITLE12=O Trenzinho
EXTD=
EXTT0=
EXTT1=
EXTT2=
EXTT3=
EXTT4=
EXTT5=
EXTT6=
EXTT7=
EXTT8=
EXTT9=
EXTT10=
EXTT11=
EXTT12=
PLAYORDER=
